<svg width="128" height="128" viewBox="0 0 128 128" fill="none" xmlns="http://www.w3.org/2000/svg">
<rect width="128" height="128" rx="24" fill="white"/>
<path d="M32 42C32 38.6863 34.6863 36 38 36H90C93.3137 36 96 38.6863 96 42V86C96 89.3137 93.3137 92 90 92H38C34.6863 92 32 89.3137 32 86V42Z" fill="#1D4ED8"/>
<path d="M48 58C48 56.8954 48.8954 56 50 56H78C79.1046 56 80 56.8954 80 58V70C80 71.1046 79.1046 72 78 72H50C48.8954 72 48 71.1046 48 70V58Z" fill="#10B981"/>
<path d="M40 32V28C40 25.7909 41.7909 24 44 24H84C86.2091 24 88 25.7909 88 28V32" stroke="#1D4ED8" stroke-width="4" stroke-linecap="round"/>
<circle cx="64" cy="84" r="8" fill="#F9FAFB"/>
</svg>
