<svg width="64" height="64" viewBox="0 0 64 64" fill="none" xmlns="http://www.w3.org/2000/svg">
<rect width="64" height="64" rx="12" fill="#1D4ED8"/>
<path d="M20 24C20 22.8954 20.8954 22 22 22H42C43.1046 22 44 22.8954 44 24V40C44 41.1046 43.1046 42 42 42H22C20.8954 42 20 41.1046 20 40V24Z" fill="#F9FAFB"/>
<path d="M28 30C28 29.4477 28.4477 29 29 29H35C35.5523 29 36 29.4477 36 30V34C36 34.5523 35.5523 35 35 35H29C28.4477 35 28 34.5523 28 34V30Z" fill="#10B981"/>
<path d="M24 20V18C24 16.8954 24.8954 16 26 16H38C39.1046 16 40 16.8954 40 18V20" stroke="#F9FAFB" stroke-width="2" stroke-linecap="round"/>
</svg>
